<svg width="175" height="61" viewBox="0 0 175 61" fill="none" xmlns="http://www.w3.org/2000/svg">
<g id="&#236;&#167;&#128;&#234;&#183;&#184;&#236;&#158;&#172;&#234;&#183;&#184;_BI 1" clip-path="url(#clip0_59_478)">
<path id="Vector" d="M146.295 61.093C146.178 61.0312 146.111 60.9274 146.03 60.9138C144.379 60.6402 142.844 60.0737 141.369 59.2738C139.871 58.4612 138.614 57.3736 137.517 56.112C136.251 54.6563 135.319 52.9828 134.819 51.1086C134.568 50.1652 134.386 49.1966 134.265 48.2278C134.161 47.393 134.12 46.5377 134.171 45.6988C134.27 44.0824 134.629 42.5167 135.239 41.0042C135.828 39.5474 136.644 38.2326 137.659 37.0529C138.586 35.9751 139.688 35.0779 140.908 34.3307C142.456 33.3828 144.136 32.7811 145.907 32.4349C146.548 32.3097 147.208 32.2343 147.86 32.2273C150.153 32.2027 152.447 32.2177 154.776 32.2177C154.776 30.917 154.776 29.6294 154.776 28.2916C154.286 28.4902 153.829 28.7327 153.342 28.861C152.27 29.1439 151.191 29.4257 150.097 29.5994C149.298 29.7262 148.472 29.7074 147.657 29.7052C146.002 29.7007 144.415 29.3169 142.883 28.7178C140.863 27.9273 139.079 26.7545 137.586 25.1844C136.263 23.7925 135.225 22.1982 134.532 20.3975C134.015 19.054 133.722 17.6679 133.577 16.2277C133.392 14.3918 133.613 12.6156 134.074 10.8569C134.545 9.06394 135.392 7.43507 136.522 5.97892C137.72 4.43445 139.162 3.14332 140.875 2.15627C142.381 1.28847 143.994 0.740977 145.68 0.379222C146.134 0.28192 146.597 0.231079 147.026 0.125943C147.835 0.0929753 148.674 0.0929753 149.526 0.124814C149.647 0.197281 149.754 0.257375 149.867 0.275337C150.54 0.382255 151.23 0.420541 151.886 0.591123C153.722 1.06868 155.431 1.83644 156.98 2.94926C158.068 3.73121 159.041 4.63695 159.878 5.67321C160.74 6.74062 161.438 7.92162 161.971 9.18916C162.636 10.773 163.075 12.4227 163.082 14.144C163.105 19.9732 163.091 25.8025 163.091 31.6318C163.091 31.8132 163.091 31.9947 163.091 32.2178C163.282 32.2178 163.433 32.2178 163.583 32.2178C165.458 32.2178 167.333 32.2111 169.208 32.229C169.379 32.2306 169.604 32.3472 169.71 32.4835C170.042 32.9109 170.327 33.3741 170.632 33.822C172.03 35.8745 173.428 37.9273 174.833 39.9752C174.881 40.046 175.004 40.066 175.092 40.1097C175.092 40.2088 175.092 40.3078 175.049 40.444C171.045 40.4811 167.085 40.4811 163.091 40.4811C163.091 40.6968 163.091 40.864 163.091 41.0312C163.091 43.0874 163.119 45.1441 163.078 47.1994C163.06 48.1229 163.001 49.0668 162.79 49.9616C161.926 53.6363 159.983 56.6226 156.822 58.74C155.154 59.8571 153.297 60.5651 151.31 60.9136C151.228 60.9279 151.163 61.0311 151.089 61.093C149.506 61.093 147.922 61.093 146.295 61.093ZM154.309 12.3584C153.754 11.1855 152.958 10.1918 151.871 9.49814C150.298 8.4954 148.565 8.16375 146.736 8.645C145.271 9.03019 144.053 9.8107 143.136 11.0399C142.435 11.979 142.025 13.0096 141.857 14.1774C141.713 15.1734 141.834 16.1107 142.154 17.0338C142.792 18.8771 144.038 20.1683 145.82 20.9586C146.881 21.4294 148.012 21.5861 149.13 21.421C150.871 21.1639 152.368 20.3793 153.46 18.9427C154.254 17.8972 154.728 16.7327 154.815 15.4117C154.883 14.3764 154.675 13.3927 154.309 12.3584ZM142.907 44.1705C142.428 45.4031 142.277 46.6856 142.545 47.9699C143.11 50.6811 144.996 52.4545 147.75 52.8072C149.432 53.0227 151.055 52.7059 152.458 51.6281C153.921 50.5033 154.73 49.0128 154.794 47.1949C154.867 45.109 154.811 43.0187 154.811 40.9303C154.811 40.784 154.811 40.6377 154.811 40.4811C152.708 40.4811 150.677 40.4516 148.647 40.497C147.929 40.5131 147.19 40.6295 146.506 40.8443C144.827 41.3716 143.654 42.5009 142.907 44.1705Z" fill="white"/>
<path id="Vector_2" d="M55.0274 61.0928C54.9543 61.0332 54.9366 60.9321 54.8938 60.9201C53.8683 60.6326 52.8153 60.4224 51.8185 60.0584C50.4358 59.5536 49.1838 58.7931 48.0446 57.8452C46.8732 56.8703 45.9101 55.7321 45.0951 54.4486C44.1212 52.9148 43.4853 51.2529 43.183 49.4762C43.0102 48.4605 42.8776 47.4169 42.9093 46.3915C42.9933 43.6812 43.6141 41.0972 45.1713 38.822C45.7861 37.9237 46.4251 37.0138 47.1992 36.2583C48.6223 34.8692 50.2729 33.7965 52.1806 33.1311C53.359 32.72 54.5489 32.3631 55.7905 32.3238C58.215 32.247 60.642 32.2484 63.0679 32.2178C63.2367 32.2157 63.4056 32.2176 63.6052 32.2176C63.6052 30.892 63.6052 29.5878 63.6052 28.3284C62.6849 28.6335 61.7581 28.9951 60.8016 29.2418C59.9415 29.4636 59.0539 29.6311 58.1692 29.695C56.5918 29.8089 55.0074 29.7257 53.4743 29.3175C51.7933 28.87 50.2148 28.181 48.7634 27.1869C46.4171 25.5799 44.6641 23.4907 43.5186 20.909C42.9512 19.63 42.5335 18.2901 42.4212 16.8765C42.3695 16.2259 42.2211 15.573 42.2523 14.9277C42.332 13.2797 42.523 11.6428 43.0909 10.0732C43.7073 8.36946 44.5853 6.82439 45.7585 5.43502C47.0336 3.92498 48.5375 2.72645 50.2986 1.82623C51.9579 0.978006 53.6928 0.419322 55.5562 0.273115C55.6371 0.266766 55.713 0.196082 55.7596 0.124071C56.5984 0.0927743 57.4686 0.0927743 58.3825 0.0927734C58.5017 0.154546 58.5739 0.265314 58.6534 0.270904C60.485 0.399561 62.2066 0.935404 63.8197 1.7727C66.3126 3.06667 68.3252 4.89831 69.7773 7.32217C70.6361 8.7557 71.2671 10.2812 71.5966 11.9143C71.7702 12.7748 71.8985 13.6611 71.9026 14.5364C71.9293 20.2297 71.9163 25.9231 71.9163 31.6164C71.9163 31.7993 71.9163 31.9822 71.9163 32.2006C75.6452 32.2006 79.3438 32.2006 83.153 32.2006C82.7485 32.7704 82.4021 33.2696 82.0442 33.7604C80.8094 35.4538 79.5705 37.1443 78.3331 38.8358C77.9763 39.3235 77.6364 39.8252 77.2509 40.2892C77.1483 40.4127 76.9059 40.4713 76.7269 40.4729C75.1465 40.4867 73.5658 40.4809 71.9163 40.4809C71.9163 40.657 71.9163 40.8193 71.9163 40.9816C71.9163 42.8382 71.9237 44.6947 71.9145 46.5512C71.9023 49.0198 71.4137 51.3803 70.2394 53.5718C69.2048 55.5026 67.8135 57.1201 66.0279 58.414C64.5545 59.4816 62.9329 60.2018 61.1949 60.6891C60.7214 60.8219 60.2379 60.9192 59.7903 61.0627C58.2381 61.0928 56.6545 61.0928 55.0274 61.0928ZM51.1745 12.2255C50.5951 13.3684 50.4695 14.6104 50.6376 15.8331C50.8783 17.5842 51.6987 19.0683 53.1625 20.1383C54.7819 21.322 56.5755 21.7335 58.5408 21.2908C60.1146 20.9363 61.3776 20.0855 62.3352 18.7948C63.438 17.3082 63.8508 15.6251 63.5178 13.8211C63.2187 12.2003 62.409 10.8411 61.0639 9.82176C59.484 8.62445 57.7106 8.1698 55.7894 8.57528C53.7056 9.01506 52.1637 10.2384 51.1745 12.2255ZM62.1846 50.693C63.191 49.6179 63.5678 48.2782 63.6178 46.8736C63.6895 44.8651 63.6366 42.8523 63.6347 40.8413C63.6346 40.7246 63.6144 40.6079 63.6026 40.4809C61.5364 40.4809 59.5062 40.4682 57.4765 40.4894C56.9329 40.4951 56.3771 40.5489 55.8496 40.675C52.2098 41.5451 50.8245 44.8161 51.2924 47.8351C51.5163 49.2797 52.2148 50.5161 53.3823 51.4794C54.34 52.2697 55.4354 52.6984 56.6337 52.8119C57.7729 52.9198 58.9273 52.8667 59.9942 52.358C60.8158 51.9664 61.6149 51.5327 62.1846 50.693Z" fill="white"/>
<path id="Vector_3" d="M117.366 0.0927734C117.471 0.154397 117.528 0.2658 117.592 0.270407C119.491 0.405688 121.259 0.974402 122.942 1.83988C124.741 2.765 126.24 4.04711 127.535 5.59208C128.966 7.2995 129.936 9.23591 130.453 11.3886C130.698 12.4129 130.817 13.4675 130.993 14.5084C131.139 15.3716 131.29 16.2341 131.428 17.0986C131.569 17.9792 131.699 18.8615 131.83 19.7436C131.994 20.8516 132.147 21.9612 132.317 23.0681C132.455 23.9627 132.616 24.8538 132.76 25.7475C132.947 26.9106 133.131 28.0744 133.311 29.2389C133.331 29.3743 133.313 29.5156 133.313 29.6825C130.568 29.6825 127.831 29.6825 125.075 29.6825C124.941 28.8121 124.806 27.936 124.665 27.0269C123.346 27.9188 121.969 28.6032 120.473 29.0773C118.591 29.6742 116.663 29.8396 114.724 29.6897C112.805 29.5413 110.962 28.9984 109.248 28.0998C107.615 27.2438 106.169 26.1257 104.955 24.743C103.392 22.9623 102.313 20.9048 101.707 18.6141C101.268 16.9546 101.21 15.2476 101.335 13.5548C101.47 11.7294 101.98 9.97036 102.811 8.33329C103.634 6.70996 104.716 5.25784 106.071 4.03187C107.929 2.35077 110.093 1.21143 112.518 0.590642C113.176 0.422477 113.865 0.382292 114.539 0.275143C114.652 0.257137 114.758 0.197078 114.836 0.124611C115.644 0.0927731 116.484 0.0927731 117.366 0.0927734ZM114.419 8.63963C113.17 9.05709 112.068 9.68007 111.189 10.699C109.742 12.3768 109.295 14.3058 109.743 16.4224C110.047 17.8587 110.826 19.0459 111.985 19.9974C112.991 20.8233 114.143 21.285 115.397 21.428C116.718 21.5785 117.991 21.3229 119.179 20.6573C121.232 19.5075 122.354 17.7425 122.603 15.453C122.768 13.9294 122.333 12.4844 121.446 11.2445C119.855 9.02099 117.18 7.98184 114.419 8.63963Z" fill="white"/>
<path id="Vector_4" d="M0.09375 26.2262C0.153878 26.1571 0.238395 26.1487 0.270652 26.1033C2.49047 22.9795 4.70258 19.8503 6.92329 16.7271C8.45923 14.567 10.0048 12.4137 11.5499 10.26C11.9691 9.67579 12.402 9.10139 12.8753 8.45917C8.85213 8.45917 4.92365 8.45917 0.963135 8.45917C0.963135 5.88719 0.963135 3.34427 0.963135 0.742801C1.11918 0.742801 1.28323 0.742801 1.44728 0.742801C9.0894 0.7428 16.7315 0.74291 24.3736 0.742676C25.4846 0.742642 26.3231 1.30917 26.5519 2.22353C26.704 2.8314 26.6699 3.44173 26.2929 3.97355C25.1328 5.60988 23.9607 7.23768 22.7933 8.86888C21.9331 10.0709 21.0728 11.2729 20.2131 12.4753C18.6774 14.6231 17.1423 16.7715 15.6065 18.9193C15.1241 19.5939 14.6385 20.2662 14.1593 20.9431C14.12 20.9987 14.1192 21.0815 14.0926 21.1811C18.2642 21.1811 22.4138 21.1811 26.586 21.1811C26.586 23.7386 26.586 26.2706 26.586 28.8753C26.4523 28.8753 26.3058 28.8753 26.1594 28.8753C18.1762 28.8753 10.1931 28.8777 2.20991 28.8717C1.41824 28.8711 0.700517 28.6755 0.281094 27.9064C0.254085 27.8568 0.186499 27.8293 0.115769 27.8228C0.0937497 27.3259 0.0937497 26.7978 0.09375 26.2262Z" fill="white"/>
<path id="Vector_5" d="M100.969 4.66495C99.8555 6.20938 98.7666 7.72991 97.6771 9.24998C95.8054 11.8611 93.9303 14.4697 92.0629 17.0839C91.1108 18.4166 90.1724 19.7591 89.177 21.1691C89.4003 21.1691 89.5623 21.1691 89.7243 21.1691C92.6544 21.1691 95.5846 21.1743 98.5146 21.1622C98.8571 21.1607 99.0548 21.2583 99.2552 21.5543C100.892 23.9728 102.553 26.3745 104.239 28.8274C104.099 28.8476 104.003 28.8736 103.907 28.8737C95.0085 28.8755 86.1097 28.8805 77.2109 28.8694C76.0134 28.8679 75.2831 28.1717 75.1882 27.029C75.1407 26.4576 75.4698 25.97 75.7989 25.5116C77.0197 23.8112 78.2331 22.1055 79.456 20.4067C81.0782 18.153 82.7139 15.9091 84.33 13.6512C85.5505 11.9459 86.7494 10.2252 87.9912 8.46402C84.0256 8.46402 80.0888 8.46402 76.1281 8.46402C76.1281 5.87077 76.1281 3.3277 76.1281 0.742866C76.2804 0.742866 76.4157 0.742866 76.551 0.742866C84.1941 0.742867 91.8371 0.734185 99.4802 0.751761C100.697 0.754559 101.401 1.19199 101.726 2.31814C101.946 3.08083 101.68 3.74629 101.199 4.34344C101.124 4.43719 101.062 4.54145 100.969 4.66495Z" fill="white"/>
<path id="Vector_6" d="M38.7952 15.1338C38.7952 19.7252 38.7952 24.2702 38.7952 28.8451C36.0382 28.8451 33.3047 28.8451 30.543 28.8451C30.543 19.53 30.543 10.2126 30.543 0.865234C33.2719 0.865234 36.0055 0.865234 38.7952 0.865234C38.7952 5.60412 38.7952 10.3457 38.7952 15.1338Z" fill="white"/>
</g>
<defs>
<clipPath id="clip0_59_478">
<rect width="175" height="61" fill="white"/>
</clipPath>
</defs>
</svg>
