<svg width="842" height="596" viewBox="0 0 842 596" fill="none" xmlns="http://www.w3.org/2000/svg">
<path fill-rule="evenodd" clip-rule="evenodd" d="M234.955 40H608.045C626.599 40 644.392 47.3702 657.511 60.4892C670.63 73.6082 678 91.4014 678 109.955V483.045C678 501.599 670.63 519.392 657.511 532.511C644.392 545.63 626.599 553 608.045 553H234.955C216.401 553 198.608 545.63 185.489 532.511C172.37 519.392 165 501.599 165 483.045V109.955C165 91.4014 172.37 73.6082 185.489 60.4892C198.608 47.3702 216.401 40 234.955 40ZM339.886 203.227H442.067L325.476 436.409H503.114V389.773H400.933L517.524 156.591H339.886V203.227Z" fill="black"/>
</svg>
